<?xml version="1.0" encoding="UTF-8"?><svg id="Layer_2" xmlns="http://www.w3.org/2000/svg" viewBox="0 0 119.3 119.31"><defs><style>.cls-1{fill:#fcfdfd;}.cls-2{fill:#fdfefe;}.cls-3{fill:#51b477;}.cls-4{fill:#55b57a;}</style></defs><g id="Layer_1-2"><g><path class="cls-3" d="M59.69,119.31C26.64,119.32-.01,92.66,0,59.6,.01,26.57,26.71-.03,59.8,0c33,.03,59.56,26.77,59.5,59.9-.05,32.81-26.74,59.41-59.61,59.42Z"/><path class="cls-2" d="M57.52,52.94c.06,5.45-3.07,8.9-8.14,8.96-4.89,.06-8.03-3.06-8.12-8.07-.1-5.43,3.03-8.98,8.03-9.08,5.29-.11,8.17,2.76,8.23,8.2Z"/><path class="cls-2" d="M69.38,62.64c4.95,0,7.83,3.04,7.89,8.32,.06,5.26-3.34,8.84-8.4,8.84-4.88,0-7.85-3.17-7.84-8.37,.01-5.51,3.12-8.78,8.35-8.78Z"/><path class="cls-1" d="M71.76,45.91c-2.62,4.11-5.19,8.15-7.77,12.19-4,6.26-8.06,12.48-11.97,18.8-1.15,1.86-2.44,2.69-4.88,1.76,3.08-4.83,6.11-9.61,9.16-14.38,3.53-5.53,7.14-11.02,10.57-16.61,1.14-1.86,2.39-2.74,4.9-1.76Z"/><path class="cls-4" d="M53.2,52.84c0,3.03-.5,5.61-3.8,5.64-3.01,.02-3.86-2.32-3.85-4.92,.01-2.64,.52-5.18,3.89-5.25,3.25-.07,3.66,2.35,3.76,4.53Z"/><path class="cls-4" d="M73.05,70.99c-.15,2.7-.68,5.33-3.91,5.38-3.01,.05-3.8-2.26-3.77-4.9,.03-2.64,.4-5.19,3.78-5.27,3.21-.07,3.62,2.4,3.89,4.79Z"/></g></g></svg>